<?xml version="1.0" encoding="UTF-8"?>
<svg id="Layer_1" data-name="Layer 1" xmlns="http://www.w3.org/2000/svg" viewBox="0 0 149.33 88.25">
  <defs>
    <style>
      .cls-1 {
        fill: #0569ac;
      }

      .cls-2 {
        fill: #b3b3b3;
      }
    </style>
  </defs>
  <path class="cls-2" d="M29.02,58.77L0,46.67v-6.15l29.02-12.13v7.98l-17.93,7.23,17.93,7.18v8Z"/>
  <path class="cls-1" d="M35.52,0h17.17c11.08,0,18.58.51,22.48,1.53,3.91,1.02,6.88,2.69,8.91,5.01,2.03,2.33,3.31,4.92,3.82,7.77.51,2.85.76,8.46.76,16.82v30.9c0,7.92-.37,13.22-1.12,15.89-.75,2.67-2.04,4.76-3.9,6.27-1.85,1.51-4.14,2.56-6.87,3.16-2.73.6-6.83.9-12.32.9h-28.94V0ZM58.47,15.1v58.05c3.31,0,5.34-.66,6.1-1.99.76-1.33,1.14-4.93,1.14-10.82V26.05c0-3.99-.13-6.56-.38-7.68-.26-1.13-.84-1.95-1.74-2.48-.91-.53-2.62-.79-5.12-.79Z"/>
  <path class="cls-2" d="M117.96,18.77l-14.45,50.71h-9.23l14.54-50.71h9.14Z"/>
  <path class="cls-2" d="M120.3,28.39l29.02,12.07v6.19l-29.02,12.13v-7.98l17.91-7.22-17.91-7.19v-8Z"/>
</svg>